Coordinates
version=1
nRows=4
nColumns=63
inDegrees=yes

Units are S.I. units (second, meters, Newtons, ...)
If the header above contains a line with 'inDegrees', this indicates whether rotational values are in degrees (yes) or radians (no).

endheader
time	pelvis_tilt	pelvis_list	pelvis_rotation	pelvis_tx	pelvis_ty	pelvis_tz	hip_flexion_r	hip_adduction_r	hip_rotation_r	knee_angle_r	knee_angle_r_beta	ankle_angle_r	subtalar_angle_r	mtp_angle_r	hip_flexion_l	hip_adduction_l	hip_rotation_l	knee_angle_l	knee_angle_l_beta	ankle_angle_l	subtalar_angle_l	mtp_angle_l	L5_S1_Flex_Ext	L5_S1_Lat_Bending	L5_S1_axial_rotation	L4_L5_Flex_Ext	L4_L5_Lat_Bending	L4_L5_axial_rotation	L3_L4_Flex_Ext	L3_L4_Lat_Bending	L3_L4_axial_rotation	L2_L3_Flex_Ext	L2_L3_Lat_Bending	L2_L3_axial_rotation	L1_L2_Flex_Ext	L1_L2_Lat_Bending	L1_L2_axial_rotation	L1_T12_Flex_Ext	L1_T12_Lat_Bending	L1_T12_axial_rotation	Abs_r3	Abs_r2	Abs_r1	Abs_t1	Abs_t2	neck_flexion	neck_bending	neck_rotation	arm_flex_r	arm_add_r	arm_rot_r	elbow_flex_r	pro_sup_r	wrist_flex_r	wrist_dev_r	arm_flex_l	arm_add_l	arm_rot_l	elbow_flex_l	pro_sup_l	wrist_flex_l	wrist_dev_l
      0.03333333	     -2.15820629	     -8.09368110	     -3.54963857	     -1.59733938	      0.87238652	      0.25678330	      0.29538261	      8.61133853	     -4.76026701	      4.06305352	      0.07091366	      3.00817056	     -5.81579578	      0.00000000	     -2.18940281	     -9.02456458	    -27.55617095	      1.06185584	      0.01853288	      7.98627169	     10.03173581	      0.00000000	      0.00012919	      0.36564975	      0.48452928	      0.00023993	      0.48631416	      0.51481236	      0.00021225	      0.88904079	      0.51481236	      0.00014766	      0.88904079	      0.42396312	      0.00011997	      0.74563296	      0.39368004	      0.00007382	      0.56639146	      0.36339696	      0.00092282	      4.13630305	      2.69480648	      0.00000000	      0.00000000	     -0.00000000	      0.00000000	     -0.00000000	     -5.95593558	     -0.39488592	     -6.63423510	     30.46434270	     33.00629416	      0.00000000	      6.13333722	     -4.46682163	      9.89970110	    -36.78055003	     46.88649180	     33.23814190	      0.00000000	      6.13333722
      0.06666667	     -2.03573738	     -7.95960430	     -4.29282695	     -1.59593577	      0.87363243	      0.25706253	      0.01233732	      8.55989530	     -2.31054347	      4.41905996	      0.07712715	      2.45355786	     -8.29621755	      0.00000000	     -1.18317593	     -9.15234566	    -15.82227126	      3.36894161	      0.05879912	      6.05659849	     -7.01869670	      0.00000000	     -0.00000604	      0.35989903	      0.41311917	     -0.00001122	      0.47866571	      0.43893912	     -0.00000993	      0.87505851	      0.43893912	     -0.00000691	      0.87505851	      0.36147927	     -0.00000561	      0.73390611	      0.33565932	     -0.00000345	      0.55748360	      0.30983938	     -0.00004316	      4.07124983	      2.29764487	      0.00000000	      0.00000000	     -0.00000000	      0.00000000	     -0.00000000	     -5.22717937	      0.73978677	    -16.56774271	     32.57823143	     30.35903925	      0.00000000	      5.74509115	     -4.52588319	     10.17766521	    -38.26354314	     46.74273833	     32.43737658	      0.00000000	      5.74509115
      0.10000000	     -1.93935195	     -7.85126446	     -4.75726395	     -1.59483672	      0.87456464	      0.25709760	     -0.24535144	      8.48249633	     -1.07361336	      4.62909972	      0.08079303	      2.18951129	     -9.32992074	      0.00000000	      0.10397434	     -9.22790243	    -10.13173524	      5.97442233	      0.10427334	      4.60936107	    -15.24234080	      0.00000000	      0.00010196	      0.35934296	      0.33169171	      0.00018935	      0.47792614	      0.35242245	      0.00016751	      0.87370648	      0.35242245	      0.00011653	      0.87370648	      0.29023025	      0.00009468	      0.73277217	      0.26949952	      0.00005826	      0.55662225	      0.24876878	      0.00072831	      4.06495945	      1.84476980	      0.00000000	      0.00000000	     -0.00000000	      0.00000000	     -0.00000000	     -4.46856563	      1.48240249	    -23.08807628	     34.42808035	     28.76850670	      0.00000000	      5.61771558	     -4.53796918	     10.41429029	    -39.49863640	     46.60165737	     31.95317023	      0.00000000	      5.61771558
      0.13333333	     -1.87411792	     -7.74444631	     -4.94115741	     -1.59409814	      0.87511508	      0.25702041	     -0.36789520	      8.38838362	     -0.40681003	      4.86639353	      0.08493459	      2.20912991	     -9.89880176	      0.00000000	      1.22432822	     -9.30385593	     -8.68338064	      8.06860599	      0.14082374	      4.53994245	    -17.10959614	      0.00000000	     -0.00037180	      0.36106977	      0.25522443	     -0.00069047	      0.48022280	      0.27117596	     -0.00061083	      0.87790505	      0.27117596	     -0.00042493	      0.87790505	      0.22332138	     -0.00034525	      0.73629348	      0.20736985	     -0.00021245	      0.55929708	      0.19141833	     -0.00265571	      4.08449349	      1.41948173	      0.00000000	      0.00000000	     -0.00000000	      0.00000000	     -0.00000000	     -3.97758371	      1.64000344	    -25.57049655	     35.60540070	     28.15775824	      0.00000000	      5.57630847	     -4.48766056	     10.63031778	    -40.59697835	     46.50281150	     31.68386985	      0.00000000	      5.57630847
